<mxfile host="app.diagrams.net" modified="2023-06-22T16:14:48.009Z" agent="Mozilla/5.0 (Windows NT 10.0; Win64; x64) AppleWebKit/537.36 (KHTML, like Gecko) Chrome/114.0.0.0 Safari/537.36" etag="pmV9ialt9uVmNLZTjDmw" version="21.5.0" type="device">
  <diagram name="Page-1" id="03018318-947c-dd8e-b7a3-06fadd420f32">
    <mxGraphModel dx="3254" dy="998" grid="1" gridSize="10" guides="1" tooltips="1" connect="1" arrows="1" fold="1" page="1" pageScale="1" pageWidth="1100" pageHeight="850" background="#ffffff" math="0" shadow="0">
      <root>
        <mxCell id="0" />
        <mxCell id="1" parent="0" />
        <mxCell id="677b7b8949515195-1" value="" style="whiteSpace=wrap;html=1;rounded=0;shadow=0;labelBackgroundColor=none;strokeColor=#000000;strokeWidth=1;fillColor=none;fontFamily=Verdana;fontSize=12;fontColor=#000000;align=center;comic=1;" parent="1" vertex="1">
          <mxGeometry x="-1020" y="50" width="1060" height="810" as="geometry" />
        </mxCell>
        <mxCell id="677b7b8949515195-2" value="Дзен" style="whiteSpace=wrap;html=1;rounded=0;shadow=0;labelBackgroundColor=none;strokeWidth=1;fontFamily=Verdana;fontSize=28;align=center;comic=1;" parent="1" vertex="1">
          <mxGeometry x="-1000" y="75" width="110" height="50" as="geometry" />
        </mxCell>
        <mxCell id="677b7b8949515195-3" value="Search" style="strokeWidth=1;shadow=0;dashed=0;align=center;html=1;shape=mxgraph.mockup.forms.searchBox;strokeColor=#999999;mainText=;strokeColor2=#008cff;fontColor=#666666;fontSize=17;align=left;spacingLeft=3;rounded=0;labelBackgroundColor=none;comic=1;" parent="1" vertex="1">
          <mxGeometry x="-850" y="85" width="780" height="30" as="geometry" />
        </mxCell>
        <mxCell id="677b7b8949515195-4" value="Topic 1" style="text;html=1;points=[];align=left;verticalAlign=top;spacingTop=-4;fontSize=14;fontFamily=Verdana" parent="1" vertex="1">
          <mxGeometry x="1190" y="130" width="60" height="20" as="geometry" />
        </mxCell>
        <mxCell id="677b7b8949515195-5" value="Topic 2" style="text;html=1;points=[];align=left;verticalAlign=top;spacingTop=-4;fontSize=14;fontFamily=Verdana" parent="1" vertex="1">
          <mxGeometry x="1190" y="90" width="60" height="40" as="geometry" />
        </mxCell>
        <mxCell id="677b7b8949515195-6" value="Topic 3" style="text;html=1;points=[];align=left;verticalAlign=top;spacingTop=-4;fontSize=14;fontFamily=Verdana" parent="1" vertex="1">
          <mxGeometry x="1190" y="75" width="60" height="40" as="geometry" />
        </mxCell>
        <mxCell id="677b7b8949515195-7" value="Topic 4" style="text;html=1;points=[];align=left;verticalAlign=top;spacingTop=-4;fontSize=14;fontFamily=Verdana" parent="1" vertex="1">
          <mxGeometry x="1190" y="55" width="60" height="20" as="geometry" />
        </mxCell>
        <mxCell id="677b7b8949515195-8" value="Left side bar" style="whiteSpace=wrap;html=1;rounded=0;shadow=0;labelBackgroundColor=none;strokeWidth=1;fillColor=none;fontFamily=Verdana;fontSize=12;align=center;comic=1;" parent="1" vertex="1">
          <mxGeometry x="-1000" y="150" width="60" height="524" as="geometry" />
        </mxCell>
        <mxCell id="677b7b8949515195-10" value="" style="whiteSpace=wrap;html=1;rounded=0;shadow=0;labelBackgroundColor=none;strokeWidth=1;fillColor=none;fontFamily=Verdana;fontSize=12;align=center;comic=1;" parent="1" vertex="1">
          <mxGeometry x="1150" y="350" width="410" height="50" as="geometry" />
        </mxCell>
        <mxCell id="677b7b8949515195-11" value="Section 1" style="text;html=1;points=[];align=left;verticalAlign=top;spacingTop=-4;fontSize=14;fontFamily=Verdana" parent="1" vertex="1">
          <mxGeometry x="1200" y="286" width="60" height="20" as="geometry" />
        </mxCell>
        <mxCell id="677b7b8949515195-12" value="Section 2" style="text;html=1;points=[];align=left;verticalAlign=top;spacingTop=-4;fontSize=14;fontFamily=Verdana" parent="1" vertex="1">
          <mxGeometry x="1190" y="250" width="60" height="20" as="geometry" />
        </mxCell>
        <mxCell id="677b7b8949515195-13" value="Section 3" style="text;html=1;points=[];align=left;verticalAlign=top;spacingTop=-4;fontSize=14;fontFamily=Verdana" parent="1" vertex="1">
          <mxGeometry x="1190" y="210" width="60" height="20" as="geometry" />
        </mxCell>
        <mxCell id="677b7b8949515195-14" value="Section 4" style="text;html=1;points=[];align=left;verticalAlign=top;spacingTop=-4;fontSize=14;fontFamily=Verdana" parent="1" vertex="1">
          <mxGeometry x="1190" y="175" width="60" height="20" as="geometry" />
        </mxCell>
        <mxCell id="677b7b8949515195-16" value="Новости&amp;nbsp;" style="verticalLabelPosition=bottom;shadow=0;dashed=0;align=center;html=1;verticalAlign=top;strokeWidth=1;shape=mxgraph.mockup.graphics.simpleIcon;strokeColor=#999999;rounded=0;labelBackgroundColor=none;fontFamily=Verdana;fontSize=14;fontColor=#000000;comic=1;" parent="1" vertex="1">
          <mxGeometry x="-910" y="138" width="580" height="237" as="geometry" />
        </mxCell>
        <mxCell id="WTeWMjZGcdEQwCzhiFEo-4" value="Курс валют" style="rounded=1;whiteSpace=wrap;html=1;" vertex="1" parent="1">
          <mxGeometry x="-300" y="320" width="220" height="50" as="geometry" />
        </mxCell>
        <mxCell id="WTeWMjZGcdEQwCzhiFEo-5" value="Погода" style="rounded=1;whiteSpace=wrap;html=1;" vertex="1" parent="1">
          <mxGeometry x="-300" y="145" width="220" height="150" as="geometry" />
        </mxCell>
        <mxCell id="WTeWMjZGcdEQwCzhiFEo-6" value="Right side bar" style="whiteSpace=wrap;html=1;rounded=0;shadow=0;labelBackgroundColor=none;strokeWidth=1;fillColor=none;fontFamily=Verdana;fontSize=12;align=center;comic=1;" vertex="1" parent="1">
          <mxGeometry x="-50" y="75" width="60" height="245" as="geometry" />
        </mxCell>
        <mxCell id="WTeWMjZGcdEQwCzhiFEo-8" value="Video" style="rounded=1;whiteSpace=wrap;html=1;" vertex="1" parent="1">
          <mxGeometry x="-910" y="440" width="410" height="225" as="geometry" />
        </mxCell>
        <mxCell id="WTeWMjZGcdEQwCzhiFEo-10" value="Video" style="rounded=1;whiteSpace=wrap;html=1;" vertex="1" parent="1">
          <mxGeometry x="-480" y="440" width="400" height="225" as="geometry" />
        </mxCell>
      </root>
    </mxGraphModel>
  </diagram>
</mxfile>
